<svg id="Layer_35" enable-background="new 0 0 64 64" height="512" viewBox="0 0 64 64" width="512" xmlns="http://www.w3.org/2000/svg"><path d="m62 54v4c0 2.21-1.79 4-4 4h-26c-2.21 0-4-1.79-4-4v-4z" fill="#838f9b"/><path d="m58 2h-6v2c0 1.1-.9 2-2 2h-10c-1.1 0-2-.9-2-2v-2h-6c-2.21 0-4 1.79-4 4v40 8h34v-48c0-2.21-1.79-4-4-4z" fill="#aab2bd"/><path d="m52 2v2c0 1.1-.9 2-2 2h-10c-1.1 0-2-.9-2-2v-2z" fill="#fcd770"/><circle cx="12" cy="12" fill="#fcd770" r="10"/><path d="m20 48-10.76 10.76c-.79.79-1.87 1.24-3 1.24-1.17 0-2.23-.48-3-1.24-.76-.77-1.24-1.83-1.24-3 0-1.13.45-2.21 1.24-3l10.76-10.76 1.5 1.5 3 3z" fill="#cf9e76"/><path d="m21.72 43.28-3.22 3.22-3-3 3.22-3.22c.84 1.15 1.85 2.16 3 3z" fill="#aab2bd"/><path d="m57 50h-24c-.552 0-1-.448-1-1v-38c0-.552.448-1 1-1h24c.552 0 1 .448 1 1v38c0 .552-.448 1-1 1z" fill="#69d6f4"/><path d="m36 34h18v12h-18z" fill="#b4dd7f"/><path d="m21.72 43.28c-1.15-.84-2.16-1.85-3-3-1.71-2.32-2.72-5.19-2.72-8.28 0-7.06 5.23-12.9 12.02-13.86.65-.09 1.31-.14 1.98-.14s1.33.05 1.98.14c6.79.96 12.02 6.8 12.02 13.86 0 .67-.05 1.33-.14 1.98-.68 4.78-3.76 8.78-7.99 10.73-1.21.56-2.52.96-3.89 1.15-.65.09-1.31.14-1.98.14s-1.33-.05-1.98-.14c-2.33-.33-4.48-1.24-6.3-2.58z" fill="#e6e9ed"/><circle cx="30" cy="32" fill="#fcd770" r="10"/><path d="m30 43c6.065 0 11-4.935 11-11s-4.935-11-11-11-11 4.935-11 11 4.935 11 11 11zm0-20c4.962 0 9 4.037 9 9s-4.038 9-9 9-9-4.037-9-9 4.038-9 9-9z"/><path d="m30 35c-.551 0-1-.448-1-1h-2c0 1.302.839 2.402 2 2.816v2.184h2v-2h2v-3c0-1.654-1.346-3-3-3-.551 0-1-.448-1-1v-1h1c.551 0 1 .448 1 1h2c0-1.302-.839-2.402-2-2.816v-2.184h-2v2h-2v3c0 1.654 1.346 3 3 3 .551 0 1 .448 1 1v1z"/><path d="m35 31h2v2h-2z"/><path d="m23 31h2v2h-2z"/><path d="m12 23c6.065 0 11-4.935 11-11s-4.935-11-11-11-11 4.935-11 11 4.935 11 11 11zm0-20c4.962 0 9 4.037 9 9s-4.038 9-9 9-9-4.037-9-9 4.038-9 9-9z"/><path d="m12 15c-.551 0-1-.448-1-1h-2c0 1.302.839 2.402 2 2.816v2.184h2v-2h2v-3c0-1.654-1.346-3-3-3-.551 0-1-.448-1-1v-1h1c.551 0 1 .448 1 1h2c0-1.302-.839-2.402-2-2.816v-2.184h-2v2h-2v3c0 1.654 1.346 3 3 3 .551 0 1 .448 1 1v1z"/><path d="m17 11h2v2h-2z"/><path d="m5 11h2v2h-2z"/><path d="m41 57h8v2h-8z"/><path d="m58 1h-26c-2.757 0-5 2.243-5 5v11.302c-6.838 1.394-12 7.454-12 14.698 0 3.008.898 5.806 2.429 8.157l-1.929 1.929-1.5-1.5-11.464 11.464c-.991.99-1.536 2.306-1.536 3.708 0 2.89 2.352 5.242 5.243 5.242 1.399 0 2.716-.545 3.707-1.535l11.464-11.465-1.5-1.5 1.929-1.929c1.548 1.008 3.287 1.746 5.157 2.127v11.302c0 2.757 2.243 5 5 5h26c2.757 0 5-2.243 5-5v-52c0-2.757-2.243-5-5-5zm-19 2h12v1c0 .552-.449 1-1 1h-10c-.551 0-1-.448-1-1zm-9 16c7.168 0 13 5.832 13 13s-5.832 13-13 13-13-5.832-13-13 5.832-13 13-13zm3 27.698c.687-.14 1.35-.342 2-.573v.875h20v-14h-10.051c.022-.332.051-.662.051-1 0-7.244-5.162-13.304-12-14.698v-6.302h24v38h-24zm11.698-11.698h8.302v10h-15.549c3.671-2.112 6.375-5.723 7.247-10zm-36.162 23.05c-.613.613-1.428.95-2.293.95-1.788 0-3.243-1.454-3.243-3.242 0-.867.337-1.681.95-2.293l10.05-10.051 4.586 4.586zm9.964-12.964-1.586-1.586 1.729-1.729c.489.567 1.019 1.097 1.586 1.586zm11.5 1.914c.338 0 .668-.029 1-.051v2.051c0 1.103.897 2 2 2h24c1.103 0 2-.897 2-2v-38c0-1.103-.897-2-2-2h-24c-1.103 0-2 .897-2 2v6.051c-.332-.022-.662-.051-1-.051s-.668.029-1 .051v-11.051c0-1.654 1.346-3 3-3h5v1c0 1.654 1.346 3 3 3h10c1.654 0 3-1.346 3-3v-1h5c1.654 0 3 1.346 3 3v47h-32v-6.051c.332.022.662.051 1 .051zm28 14h-26c-1.654 0-3-1.346-3-3v-3h32v3c0 1.654-1.346 3-3 3z"/><path d="m35 13h2v2h-2z"/><path d="m39 13h2v2h-2z"/><path d="m43 13h12v2h-12z"/><path d="m43 17h12v2h-12z"/><path d="m47 21h8v2h-8z"/><path d="m47 25h8v2h-8z"/><path d="m47 29h8v2h-8z"/></svg>