<svg id="Icon_Set" enable-background="new 0 0 64 64" height="512" viewBox="0 0 64 64" width="512" xmlns="http://www.w3.org/2000/svg"><path d="m56 35h-51c-.552 0-1-.448-1-1v-28c0-.552.448-1 1-1h51c.552 0 1 .448 1 1v28c0 .552-.448 1-1 1z" fill="#a0b570"/><path d="m56 35.5h-51c-.827 0-1.5-.673-1.5-1.5v-28c0-.827.673-1.5 1.5-1.5h51c.827 0 1.5.673 1.5 1.5v28c0 .827-.673 1.5-1.5 1.5zm-51-30c-.276 0-.5.224-.5.5v28c0 .276.224.5.5.5h51c.276 0 .5-.224.5-.5v-28c0-.276-.224-.5-.5-.5z" fill="#212a41"/><path d="m59 35h-51c-.552 0-1-.448-1-1v-28c0-.552.448-1 1-1h51c.552 0 1 .448 1 1v28c0 .552-.448 1-1 1z" fill="#bed38e"/><path d="m59 35.5h-51c-.827 0-1.5-.673-1.5-1.5v-28c0-.827.673-1.5 1.5-1.5h51c.827 0 1.5.673 1.5 1.5v28c0 .827-.673 1.5-1.5 1.5zm-51-30c-.276 0-.5.224-.5.5v28c0 .276.224.5.5.5h51c.276 0 .5-.224.5-.5v-28c0-.276-.224-.5-.5-.5z" fill="#212a41"/><path d="m52.587 8h-38.174c-.812 2.004-2.409 3.601-4.413 4.413v15.174c2.004.812 3.601 2.41 4.413 4.413h38.174c.812-2.004 2.409-3.601 4.413-4.413v-15.174c-2.004-.812-3.601-2.409-4.413-4.413z" fill="#e0e0e0"/><path d="m52.587 32.5h-38.174c-.204 0-.387-.124-.463-.312-.758-1.871-2.266-3.379-4.137-4.137-.189-.077-.313-.26-.313-.464v-15.174c0-.204.124-.387.312-.463 1.872-.759 3.38-2.267 4.138-4.137.076-.189.26-.312.463-.312h38.174c.204 0 .387.124.463.312.758 1.871 2.266 3.378 4.138 4.137.188.077.312.26.312.463v15.174c0 .204-.124.387-.312.463-1.871.758-3.379 2.266-4.137 4.137-.077.189-.26.313-.464.313zm-37.844-1h37.515c.849-1.873 2.37-3.394 4.243-4.243v-14.514c-1.873-.85-3.394-2.371-4.243-4.243h-37.515c-.849 1.872-2.37 3.393-4.243 4.243v14.515c1.873.848 3.394 2.369 4.243 4.242z" fill="#212a41"/><path d="m51.345 30.5c-.085 0-.171-.021-.25-.067-.239-.139-.32-.445-.182-.684.873-1.504 2.109-2.774 3.587-3.688v-12.123c-1.478-.913-2.714-2.183-3.587-3.688-.139-.239-.057-.545.182-.684.24-.138.545-.057.684.182.834 1.438 2.035 2.639 3.473 3.474.154.09.249.254.249.433v12.689c0 .178-.095.343-.249.433-1.438.834-2.639 2.036-3.473 3.474-.094.16-.262.249-.434.249z" fill="#c2c2c2"/><path d="m15.655 30.5c-.172 0-.34-.089-.433-.249-.834-1.438-2.035-2.639-3.473-3.474-.154-.09-.249-.254-.249-.433v-12.689c0-.178.095-.343.249-.433 1.438-.834 2.639-2.036 3.473-3.474.139-.239.443-.321.684-.182.239.139.32.445.182.684-.873 1.504-2.109 2.774-3.587 3.688v12.123c1.478.913 2.714 2.183 3.587 3.688.139.239.057.545-.182.684-.079.046-.166.067-.251.067z" fill="#fefefe"/><circle cx="33.5" cy="20" fill="#bed38e" r="9"/><g fill="#212a41"><path d="m33.5 29.5c-5.238 0-9.5-4.262-9.5-9.5s4.262-9.5 9.5-9.5 9.5 4.262 9.5 9.5-4.262 9.5-9.5 9.5zm0-18c-4.687 0-8.5 3.813-8.5 8.5s3.813 8.5 8.5 8.5 8.5-3.813 8.5-8.5-3.813-8.5-8.5-8.5z"/><path d="m34 23.5h-2.5c-.276 0-.5-.224-.5-.5s.224-.5.5-.5h2.5c.551 0 1-.449 1-1s-.449-1-1-1h-1c-1.103 0-2-.897-2-2s.897-2 2-2h2.5c.276 0 .5.224.5.5s-.224.5-.5.5h-2.5c-.551 0-1 .449-1 1s.449 1 1 1h1c1.103 0 2 .897 2 2s-.897 2-2 2z"/><path d="m33.5 17.5c-.276 0-.5-.224-.5-.5v-2c0-.276.224-.5.5-.5s.5.224.5.5v2c0 .276-.224.5-.5.5z"/><path d="m33.5 25.5c-.276 0-.5-.224-.5-.5v-2c0-.276.224-.5.5-.5s.5.224.5.5v2c0 .276-.224.5-.5.5z"/></g><circle cx="49" cy="20" fill="#a0b570" r="2"/><path d="m49 22.5c-1.378 0-2.5-1.122-2.5-2.5s1.122-2.5 2.5-2.5 2.5 1.122 2.5 2.5-1.122 2.5-2.5 2.5zm0-4c-.827 0-1.5.673-1.5 1.5s.673 1.5 1.5 1.5 1.5-.673 1.5-1.5-.673-1.5-1.5-1.5z" fill="#212a41"/><circle cx="18" cy="20" fill="#a0b570" r="2"/><path d="m18 22.5c-1.378 0-2.5-1.122-2.5-2.5s1.122-2.5 2.5-2.5 2.5 1.122 2.5 2.5-1.122 2.5-2.5 2.5zm0-4c-.827 0-1.5.673-1.5 1.5s.673 1.5 1.5 1.5 1.5-.673 1.5-1.5-.673-1.5-1.5-1.5z" fill="#212a41"/><path d="m52 59h-21c-1.105 0-2-.895-2-2v-25c0-1.105.895-2 2-2h21c1.105 0 2 .895 2 2v25c0 1.105-.895 2-2 2z" fill="#4e4b51"/><path d="m52 59.5h-21c-1.378 0-2.5-1.122-2.5-2.5v-25c0-1.378 1.122-2.5 2.5-2.5h21c1.378 0 2.5 1.122 2.5 2.5v25c0 1.378-1.122 2.5-2.5 2.5zm-21-29c-.827 0-1.5.673-1.5 1.5v25c0 .827.673 1.5 1.5 1.5h21c.827 0 1.5-.673 1.5-1.5v-25c0-.827-.673-1.5-1.5-1.5z" fill="#212a41"/><path d="m55 59h-21c-1.105 0-2-.895-2-2v-25c0-1.105.895-2 2-2h21c1.105 0 2 .895 2 2v25c0 1.105-.895 2-2 2z" fill="#6c696f"/><path d="m55 59.5h-21c-1.378 0-2.5-1.122-2.5-2.5v-25c0-1.378 1.122-2.5 2.5-2.5h21c1.378 0 2.5 1.122 2.5 2.5v25c0 1.378-1.122 2.5-2.5 2.5zm-21-29c-.827 0-1.5.673-1.5 1.5v25c0 .827.673 1.5 1.5 1.5h21c.827 0 1.5-.673 1.5-1.5v-25c0-.827-.673-1.5-1.5-1.5z" fill="#212a41"/><path d="m35 34h19v6h-19z" fill="#e0e0e0"/><path d="m54 40.5h-19c-.276 0-.5-.224-.5-.5v-6c0-.276.224-.5.5-.5h19c.276 0 .5.224.5.5v6c0 .276-.224.5-.5.5zm-18.5-1h18v-5h-18z" fill="#212a41"/><path d="m35 43h4v4h-4z" fill="#e0e0e0"/><path d="m39 47.5h-4c-.276 0-.5-.224-.5-.5v-4c0-.276.224-.5.5-.5h4c.276 0 .5.224.5.5v4c0 .276-.224.5-.5.5zm-3.5-1h3v-3h-3z" fill="#212a41"/><path d="m39 43h4v4h-4z" fill="#e0e0e0"/><path d="m43 47.5h-4c-.276 0-.5-.224-.5-.5v-4c0-.276.224-.5.5-.5h4c.276 0 .5.224.5.5v4c0 .276-.224.5-.5.5zm-3.5-1h3v-3h-3z" fill="#212a41"/><path d="m43 43h4v4h-4z" fill="#e0e0e0"/><path d="m47 47.5h-4c-.276 0-.5-.224-.5-.5v-4c0-.276.224-.5.5-.5h4c.276 0 .5.224.5.5v4c0 .276-.224.5-.5.5zm-3.5-1h3v-3h-3z" fill="#212a41"/><path d="m50 43h4v4h-4z" fill="#e0e0e0"/><path d="m54 47.5h-4c-.276 0-.5-.224-.5-.5v-4c0-.276.224-.5.5-.5h4c.276 0 .5.224.5.5v4c0 .276-.224.5-.5.5zm-3.5-1h3v-3h-3z" fill="#212a41"/><path d="m35 47h4v4h-4z" fill="#e0e0e0"/><path d="m39 51.5h-4c-.276 0-.5-.224-.5-.5v-4c0-.276.224-.5.5-.5h4c.276 0 .5.224.5.5v4c0 .276-.224.5-.5.5zm-3.5-1h3v-3h-3z" fill="#212a41"/><path d="m39 47h4v4h-4z" fill="#e0e0e0"/><path d="m43 51.5h-4c-.276 0-.5-.224-.5-.5v-4c0-.276.224-.5.5-.5h4c.276 0 .5.224.5.5v4c0 .276-.224.5-.5.5zm-3.5-1h3v-3h-3z" fill="#212a41"/><path d="m43 47h4v4h-4z" fill="#e0e0e0"/><path d="m47 51.5h-4c-.276 0-.5-.224-.5-.5v-4c0-.276.224-.5.5-.5h4c.276 0 .5.224.5.5v4c0 .276-.224.5-.5.5zm-3.5-1h3v-3h-3z" fill="#212a41"/><path d="m50 47h4v4h-4z" fill="#e0e0e0"/><path d="m54 51.5h-4c-.276 0-.5-.224-.5-.5v-4c0-.276.224-.5.5-.5h4c.276 0 .5.224.5.5v4c0 .276-.224.5-.5.5zm-3.5-1h3v-3h-3z" fill="#212a41"/><path d="m35 51h4v4h-4z" fill="#e0e0e0"/><path d="m39 55.5h-4c-.276 0-.5-.224-.5-.5v-4c0-.276.224-.5.5-.5h4c.276 0 .5.224.5.5v4c0 .276-.224.5-.5.5zm-3.5-1h3v-3h-3z" fill="#212a41"/><path d="m39 51h4v4h-4z" fill="#e0e0e0"/><path d="m43 55.5h-4c-.276 0-.5-.224-.5-.5v-4c0-.276.224-.5.5-.5h4c.276 0 .5.224.5.5v4c0 .276-.224.5-.5.5zm-3.5-1h3v-3h-3z" fill="#212a41"/><path d="m43 51h4v4h-4z" fill="#e0e0e0"/><path d="m47 55.5h-4c-.276 0-.5-.224-.5-.5v-4c0-.276.224-.5.5-.5h4c.276 0 .5.224.5.5v4c0 .276-.224.5-.5.5zm-3.5-1h3v-3h-3z" fill="#212a41"/><path d="m50 51h4v4h-4z" fill="#d32e5e"/><path d="m54 55.5h-4c-.276 0-.5-.224-.5-.5v-4c0-.276.224-.5.5-.5h4c.276 0 .5.224.5.5v4c0 .276-.224.5-.5.5zm-3.5-1h3v-3h-3z" fill="#212a41"/><path d="m52 38.5c-.276 0-.5-.224-.5-.5v-2c0-.276.224-.5.5-.5s.5.224.5.5v2c0 .276-.224.5-.5.5z" fill="#c2c2c2"/><path d="m37 38.5c-.276 0-.5-.224-.5-.5v-2c0-.276.224-.5.5-.5s.5.224.5.5v2c0 .276-.224.5-.5.5z" fill="#fefefe"/><path d="m22 59h-14c-.552 0-1-.448-1-1v-2c0-.552.448-1 1-1h14c.552 0 1 .448 1 1v2c0 .552-.448 1-1 1z" fill="#f9ac2f"/><path d="m22 55h-14c-.552 0-1-.448-1-1v-2c0-.552.448-1 1-1h14c.552 0 1 .448 1 1v2c0 .552-.448 1-1 1z" fill="#f9ac2f"/><path d="m22 51h-14c-.552 0-1-.448-1-1v-2c0-.552.448-1 1-1h14c.552 0 1 .448 1 1v2c0 .552-.448 1-1 1z" fill="#f9ac2f"/><circle cx="15" cy="39" fill="#f9ac2f" r="8"/><path d="m15 47.5c-4.687 0-8.5-3.813-8.5-8.5s3.813-8.5 8.5-8.5 8.5 3.813 8.5 8.5-3.813 8.5-8.5 8.5zm0-16c-4.136 0-7.5 3.364-7.5 7.5s3.364 7.5 7.5 7.5 7.5-3.364 7.5-7.5-3.364-7.5-7.5-7.5z" fill="#212a41"/><path d="m15 45.5c-.276 0-.5-.224-.5-.5s.224-.5.5-.5c3.033 0 5.5-2.467 5.5-5.5 0-.276.224-.5.5-.5s.5.224.5.5c0 3.584-2.916 6.5-6.5 6.5z" fill="#db8e11"/><path d="m9 39.5c-.276 0-.5-.224-.5-.5 0-3.584 2.916-6.5 6.5-6.5.276 0 .5.224.5.5s-.224.5-.5.5c-3.033 0-5.5 2.467-5.5 5.5 0 .276-.224.5-.5.5z" fill="#ffca4d"/><path d="m15.5 42.5h-2.5c-.276 0-.5-.224-.5-.5s.224-.5.5-.5h2.5c.551 0 1-.449 1-1s-.449-1-1-1h-1c-1.103 0-2-.897-2-2s.897-2 2-2h2.5c.276 0 .5.224.5.5s-.224.5-.5.5h-2.5c-.551 0-1 .449-1 1s.449 1 1 1h1c1.103 0 2 .897 2 2s-.897 2-2 2z" fill="#212a41"/><path d="m15 36.5c-.276 0-.5-.224-.5-.5v-2c0-.276.224-.5.5-.5s.5.224.5.5v2c0 .276-.224.5-.5.5z" fill="#212a41"/><path d="m15 44.5c-.276 0-.5-.224-.5-.5v-2c0-.276.224-.5.5-.5s.5.224.5.5v2c0 .276-.224.5-.5.5z" fill="#212a41"/><path d="m21 57.5c-.276 0-.5-.224-.5-.5v-8c0-.276.224-.5.5-.5s.5.224.5.5v8c0 .276-.224.5-.5.5z" fill="#db8e11"/><path d="m9 57.5c-.276 0-.5-.224-.5-.5v-8c0-.276.224-.5.5-.5s.5.224.5.5v8c0 .276-.224.5-.5.5z" fill="#ffca4d"/><path d="m22 59.5h-14c-.827 0-1.5-.673-1.5-1.5v-2c0-.827.673-1.5 1.5-1.5h14c.827 0 1.5.673 1.5 1.5v2c0 .827-.673 1.5-1.5 1.5zm-14-4c-.276 0-.5.224-.5.5v2c0 .276.224.5.5.5h14c.276 0 .5-.224.5-.5v-2c0-.276-.224-.5-.5-.5z" fill="#212a41"/><path d="m22 55.5h-14c-.827 0-1.5-.673-1.5-1.5v-2c0-.827.673-1.5 1.5-1.5h14c.827 0 1.5.673 1.5 1.5v2c0 .827-.673 1.5-1.5 1.5zm-14-4c-.276 0-.5.224-.5.5v2c0 .276.224.5.5.5h14c.276 0 .5-.224.5-.5v-2c0-.276-.224-.5-.5-.5z" fill="#212a41"/><path d="m22 51.5h-14c-.827 0-1.5-.673-1.5-1.5v-2c0-.827.673-1.5 1.5-1.5h14c.827 0 1.5.673 1.5 1.5v2c0 .827-.673 1.5-1.5 1.5zm-14-4c-.276 0-.5.224-.5.5v2c0 .276.224.5.5.5h14c.276 0 .5-.224.5-.5v-2c0-.276-.224-.5-.5-.5z" fill="#212a41"/></svg>